<mxfile host="drawio-plugin" modified="2021-10-25T20:51:58.214Z" agent="5.0 (Windows NT 6.2; Win64; x64) AppleWebKit/537.36 (KHTML, like Gecko) Chrome/89.0.4389.114 Safari/537.36" version="14.7.4" etag="Sq1PTaYDK6sN0litES7_" type="embed"><diagram id="2WnATtufFiowDH3pSJf0" name="Page-1"><mxGraphModel dx="947" dy="425" grid="1" gridSize="10" guides="1" tooltips="1" connect="1" arrows="1" fold="1" page="1" pageScale="1" pageWidth="850" pageHeight="1100" math="0" shadow="0"><root><mxCell id="0"/><mxCell id="1" parent="0"/><mxCell id="10" style="edgeStyle=orthogonalEdgeStyle;rounded=0;orthogonalLoop=1;jettySize=auto;html=1;exitX=1;exitY=0.5;exitDx=0;exitDy=0;entryX=0;entryY=0.5;entryDx=0;entryDy=0;" edge="1" parent="1" source="2" target="8"><mxGeometry relative="1" as="geometry"/></mxCell><mxCell id="2" value="User" style="whiteSpace=wrap;html=1;fillColor=#d5e8d4;strokeColor=#82b366;" vertex="1" parent="1"><mxGeometry x="80" y="40" width="120" height="40" as="geometry"/></mxCell><mxCell id="8" value="trainer" style="whiteSpace=wrap;html=1;fillColor=#d5e8d4;strokeColor=#82b366;" vertex="1" parent="1"><mxGeometry x="390" y="40" width="120" height="60" as="geometry"/></mxCell><mxCell id="9" value="menu" style="whiteSpace=wrap;html=1;fillColor=#d5e8d4;strokeColor=#82b366;" vertex="1" parent="1"><mxGeometry x="340" y="230" width="120" height="60" as="geometry"/></mxCell></root></mxGraphModel></diagram></mxfile>